<?xml version="1.0" standalone="no"?>
<!DOCTYPE svg PUBLIC "-//W3C//DTD SVG 20010904//EN"
 "http://www.w3.org/TR/2001/REC-SVG-20010904/DTD/svg10.dtd">
<svg version="1.0" xmlns="http://www.w3.org/2000/svg"
 width="380.000000pt" height="400.000000pt" viewBox="0 0 380.000000 400.000000"
 preserveAspectRatio="xMidYMid meet">
<metadata>
Created by potrace 1.16, written by Peter Selinger 2001-2019
</metadata>
<g transform="translate(0.000000,400.000000) scale(0.100000,-0.100000)"
fill="#000000" stroke="none">
<path d="M570 3580 l0 -250 30 0 30 0 1 143 1 142 21 -97 c21 -95 22 -98 49
-98 23 0 28 5 34 38 3 20 12 62 19 92 13 54 13 53 14 -82 l1 -138 35 0 35 0 0
250 0 250 -39 0 c-44 0 -39 12 -78 -182 -9 -49 -20 -85 -24 -80 -4 4 -17 57
-28 117 -30 152 -27 145 -67 145 l-34 0 0 -250z"/>
<path d="M960 3580 l0 -250 35 0 35 0 0 250 0 250 -35 0 -35 0 0 -250z"/>
<path d="M1160 3580 l0 -250 35 0 35 0 1 148 1 147 34 -105 c19 -58 34 -124
34 -147 0 -41 1 -43 30 -43 l30 0 0 250 0 250 -30 0 -29 0 -3 -117 -3 -117
-34 117 -35 117 -33 0 -33 0 0 -250z"/>
<path d="M1490 3580 l0 -250 35 0 35 0 1 153 1 152 34 -105 c19 -58 34 -126
34 -152 l0 -48 35 0 35 0 0 250 0 250 -35 0 -35 0 -1 -112 c-1 -126 0 -127
-49 40 -22 71 -22 72 -56 72 l-34 0 0 -250z"/>
<path d="M1820 3580 l0 -250 85 0 85 0 0 30 c0 29 -1 30 -50 30 l-50 0 0 80 0
80 45 0 c45 0 45 0 45 35 0 35 0 35 -45 35 l-45 0 0 70 0 70 50 0 50 0 0 35 0
35 -85 0 -85 0 0 -250z"/>
<path d="M2135 3818 c-32 -18 -35 -28 -35 -124 0 -102 -1 -101 79 -145 l46
-25 3 -62 c2 -51 0 -63 -14 -69 -22 -8 -48 9 -52 36 -3 16 -10 21 -33 21 -27
0 -29 -2 -29 -40 0 -58 26 -80 94 -80 86 0 100 18 104 128 4 100 -3 114 -77
148 -48 22 -61 40 -61 88 0 52 11 69 41 64 19 -2 25 -10 27 -35 3 -30 6 -33
38 -33 31 0 34 3 34 29 0 46 -19 87 -46 100 -32 14 -93 14 -119 -1z"/>
<path d="M2440 3818 l-25 -14 -3 -220 c-3 -259 -7 -249 98 -249 111 0 110 -3
110 245 0 195 -1 208 -20 225 -26 24 -124 31 -160 13z m94 -54 c14 -5 16 -31
16 -184 0 -170 -1 -179 -20 -185 -11 -3 -29 -3 -40 0 -19 6 -20 15 -20 185 0
180 1 187 37 189 6 1 18 -2 27 -5z"/>
<path d="M2720 3800 c0 -28 3 -30 35 -30 l35 0 0 -220 0 -220 35 0 35 0 0 220
0 220 30 0 c27 0 30 3 30 30 l0 30 -100 0 -100 0 0 -30z"/>
<path d="M3063 3820 c-39 -16 -43 -40 -43 -269 l0 -221 35 0 35 0 0 90 0 90
35 0 35 0 0 -90 0 -90 36 0 35 0 -3 230 c-3 265 -2 261 -90 267 -29 1 -63 -1
-75 -7z m81 -56 c13 -5 16 -24 16 -100 l0 -94 -35 0 -35 0 0 94 c0 90 4 102
32 105 3 1 13 -2 22 -5z"/>
<path d="M1931 1994 c-1 -12 -7 -24 -15 -27 -8 -3 -14 -14 -14 -24 1 -10 -2
-28 -6 -40 -6 -18 -4 -21 14 -16 14 4 20 1 20 -11 0 -10 -4 -15 -9 -12 -5 3
-11 -1 -15 -9 -3 -8 -12 -12 -21 -9 -10 4 -15 0 -15 -10 0 -9 -7 -19 -16 -23
-8 -3 -13 -12 -10 -19 3 -8 1 -14 -5 -14 -6 0 -7 -5 -4 -11 4 -6 13 -8 21 -5
8 3 14 1 14 -5 0 -5 -7 -12 -15 -15 -8 -4 -12 -10 -9 -15 3 -5 2 -9 -3 -8 -4
1 -17 1 -29 0 -17 -1 -20 -6 -16 -31 2 -16 9 -30 14 -30 5 0 2 -7 -7 -16 -8
-9 -23 -13 -32 -10 -14 6 -14 8 3 21 12 9 14 14 6 15 -7 0 -10 5 -7 10 3 6 2
10 -4 10 -6 0 -17 12 -24 26 -9 17 -17 23 -21 16 -11 -18 -49 26 -43 49 4 14
-1 21 -20 25 -14 4 -21 9 -16 13 17 12 10 51 -10 51 -10 0 -16 -4 -12 -9 3 -5
0 -13 -6 -17 -7 -4 -9 -3 -6 3 4 6 -4 14 -18 17 -15 4 -25 14 -25 24 0 13 -2
14 -9 4 -6 -10 -16 -11 -42 -4 -19 6 -26 11 -17 11 28 2 31 20 4 33 -15 6 -26
20 -27 32 -1 20 -2 20 -6 1 -3 -11 -14 -26 -24 -33 -11 -7 -17 -18 -13 -23 3
-6 -5 -22 -17 -36 l-24 -25 30 3 c17 2 33 8 37 14 4 5 8 0 8 -12 0 -14 -6 -23
-15 -23 -9 0 -18 -7 -21 -15 -4 -8 -10 -12 -15 -9 -5 3 -9 0 -9 -6 0 -7 -7
-10 -15 -6 -8 3 -15 1 -15 -4 0 -6 -7 -10 -15 -10 -12 0 -13 -4 -6 -18 13 -25
70 -18 93 12 14 17 18 18 18 5 0 -21 -17 -35 -52 -44 -35 -9 -27 -25 10 -21
15 2 19 1 10 -1 -27 -7 -22 -23 7 -23 16 0 25 -6 25 -15 0 -11 -11 -15 -36
-15 -19 0 -42 -7 -50 -15 -14 -13 -12 -16 11 -25 14 -5 36 -10 48 -11 21 0 21
-1 -2 -10 -16 -6 -28 -6 -35 1 -13 13 -79 13 -71 0 3 -5 -2 -10 -12 -10 -15 0
-16 -2 -3 -10 8 -5 10 -10 3 -10 -16 0 -11 -24 9 -44 19 -19 50 -21 80 -5 25
13 40 1 15 -13 -17 -9 -17 -11 -1 -22 15 -11 13 -14 -17 -25 -94 -36 -100 -57
-14 -47 42 5 54 3 59 -9 5 -15 -7 -17 -99 -19 -42 -1 -63 -16 -41 -28 9 -5 14
-13 11 -19 -4 -5 0 -9 7 -9 9 0 9 -3 -2 -10 -11 -7 -6 -10 21 -10 19 0 40 5
45 10 6 6 56 13 112 15 92 4 108 8 173 41 l72 36 43 -17 c42 -16 45 -16 74 5
31 22 34 22 212 10 4 0 16 -20 27 -44 23 -48 42 -56 154 -56 l57 0 -20 -40
c-12 -23 -29 -44 -38 -47 -28 -10 -80 -68 -96 -108 -20 -47 -20 -45 4 -45 17
0 20 7 21 48 1 26 4 37 6 25 3 -17 11 -23 30 -23 18 0 24 4 20 15 -8 19 2 24
33 14 24 -7 24 -7 3 -8 -13 -1 -23 -5 -23 -10 0 -5 10 -12 23 -14 l22 -4 -22
-2 c-16 -1 -23 -7 -23 -21 0 -11 5 -20 11 -20 5 0 7 5 4 10 -3 6 -1 10 4 10 6
0 11 -3 12 -7 6 -55 6 -56 -5 -41 -12 16 -86 24 -86 9 0 -5 17 -12 38 -14 l37
-4 -37 -1 c-23 -1 -38 -7 -38 -14 0 -9 -4 -8 -10 2 -7 11 -10 7 -10 -17 0 -38
26 -46 33 -10 l4 22 2 -22 c1 -23 25 -32 36 -14 3 6 17 6 35 1 l30 -8 2 164 3
165 85 35 c69 28 93 34 128 29 23 -3 42 -12 42 -18 0 -9 2 -9 8 1 6 8 22 10
54 6 43 -6 47 -9 56 -43 l10 -36 1 31 c1 28 6 33 57 53 31 11 61 21 67 21 7 0
48 -18 92 -39 49 -23 83 -34 86 -28 5 6 58 7 153 3 l146 -8 0 211 c0 116 -4
211 -9 211 -5 0 -11 9 -14 21 -4 15 -2 19 8 15 9 -3 13 2 12 15 -1 12 -9 19
-22 20 -18 1 -18 2 -2 6 18 5 18 6 1 24 -16 18 -16 19 2 19 16 0 17 2 4 10
-16 10 -17 13 -19 57 -1 34 -8 27 -12 -12 -2 -16 -10 -39 -19 -49 -14 -18 -13
-19 1 -14 14 5 15 3 5 -17 -9 -21 -12 -21 -23 -6 -7 9 -13 30 -13 46 -1 25 -3
27 -9 10 -5 -11 -6 -26 -4 -32 3 -7 1 -13 -5 -13 -5 0 -12 -9 -15 -20 -6 -23
-27 -27 -27 -5 0 9 -7 18 -15 21 -8 4 -15 17 -15 29 0 13 -4 27 -10 30 -6 4
-10 -5 -10 -20 0 -15 -12 -39 -30 -58 -32 -35 -26 -62 10 -39 17 11 20 10 20
-8 0 -13 -7 -20 -19 -20 -11 0 -21 -9 -24 -21 -6 -22 -27 -17 -27 6 0 8 -11
17 -25 21 -27 7 -36 44 -10 44 23 0 6 30 -19 31 -18 1 -18 2 -3 6 18 5 18 6 1
24 -16 18 -16 19 2 19 16 0 17 2 4 10 -16 10 -17 13 -19 57 -2 40 -10 22 -14
-30 -2 -26 -8 -51 -12 -55 -5 -4 -5 -1 -1 6 4 7 1 12 -9 12 -9 0 -14 4 -11 9
3 5 -1 14 -9 21 -8 7 -16 27 -16 44 -1 31 -1 31 -8 -6 -4 -20 -15 -48 -24 -62
-12 -17 -13 -27 -6 -32 6 -4 15 0 20 7 6 10 9 8 9 -8 0 -14 -6 -23 -15 -23 -8
0 -15 -9 -15 -21 0 -20 -1 -20 -29 -3 -17 10 -27 22 -24 28 4 5 0 7 -9 3 -11
-4 -14 -1 -11 12 3 11 -4 21 -19 28 -23 11 -22 12 7 13 l30 1 -30 14 c-16 7
-24 14 -16 14 9 1 10 5 3 14 -5 6 -12 21 -15 32 -4 15 -5 13 -6 -7 0 -16 -7
-28 -13 -28 -10 0 -9 -3 1 -9 11 -7 9 -11 -8 -20 -17 -10 -22 -9 -27 3 -3 8
-11 14 -17 12 -7 -1 -9 -1 -4 1 11 7 8 31 -5 36 -10 4 -9 8 2 16 10 7 11 11 2
11 -6 0 -11 5 -10 11 2 6 -3 13 -10 14 -8 3 -9 2 -1 -2 8 -4 3 -12 -12 -24
-14 -11 -18 -19 -10 -19 11 0 11 -3 1 -15 -7 -8 -9 -15 -5 -15 4 0 0 -11 -9
-25 -15 -23 -15 -25 0 -25 13 0 14 -3 4 -15 -6 -8 -9 -19 -6 -24 4 -5 1 -13
-5 -17 -7 -4 -9 -3 -6 3 4 6 -4 14 -18 17 -14 4 -25 14 -26 24 0 14 -2 14 -6
2 -3 -8 -11 -18 -16 -22 -6 -3 -12 -15 -13 -24 -2 -10 -10 -24 -19 -30 -12 -9
-13 -13 -3 -17 7 -2 9 -8 5 -13 -10 -11 -39 25 -31 38 3 5 -2 18 -12 29 -13
15 -19 16 -26 7 -5 -9 -8 -6 -8 10 0 14 6 22 17 22 14 0 14 3 -3 22 -10 12
-14 18 -7 14 9 -5 8 1 -2 20 -7 15 -11 33 -8 40 3 9 -2 14 -12 14 -10 0 -15
-5 -12 -14 3 -7 0 -19 -6 -25 -6 -6 -7 -11 -3 -11 5 0 1 -11 -8 -25 -16 -24
-16 -25 4 -25 11 0 20 -4 20 -10 0 -5 -4 -10 -10 -10 -5 0 -10 -6 -10 -14 0
-13 -19 -26 -47 -32 -7 -1 -13 2 -13 8 0 6 -7 7 -16 4 -14 -6 -15 -4 -4 9 11
14 10 17 -8 22 -14 3 -22 14 -23 27 0 21 0 21 -9 -1 -5 -13 -14 -23 -20 -23
-5 0 -10 -9 -10 -20 0 -10 -8 -24 -17 -30 -15 -9 -12 -10 15 -7 22 2 32 -1 32
-10 0 -7 -5 -13 -11 -13 -6 0 -17 -7 -25 -15 -20 -20 -45 -20 -38 0 4 8 -1 17
-10 21 -9 3 -16 14 -16 23 0 9 -8 1 -16 -16 -16 -32 -49 -48 -38 -19 3 8 1 17
-5 21 -6 3 -11 17 -11 31 0 18 -6 24 -22 26 -13 0 -29 2 -37 2 -8 1 -17 11
-22 24 -7 19 -5 22 19 22 24 1 25 2 10 14 -10 7 -14 16 -10 21 4 4 -2 5 -13 1
-11 -3 -27 -1 -35 5 -12 8 -12 9 4 7 28 -4 31 19 4 27 -13 4 -26 13 -30 19 -5
7 -8 6 -9 -4 0 -8 -5 -4 -9 10 -7 23 -8 23 -9 4z m789 -124 c-8 -5 -26 -9 -40
-9 -23 1 -23 2 5 9 43 11 52 11 35 0z m-1190 -10 c13 -8 13 -10 -2 -10 -9 0
-20 5 -23 10 -8 13 5 13 25 0z m5 -30 c-3 -5 -11 -10 -16 -10 -6 0 -7 5 -4 10
3 6 11 10 16 10 6 0 7 -4 4 -10z m1395 0 c0 -5 -7 -10 -15 -10 -8 0 -15 5 -15
10 0 6 7 10 15 10 8 0 15 -4 15 -10z m-855 -48 c-9 -36 -9 -36 -42 -18 -22 12
-24 15 -8 16 23 0 9 16 -20 22 -11 3 2 5 28 6 48 0 49 0 42 -26z m655 8 c0
-11 -2 -20 -4 -20 -2 0 -6 9 -9 20 -3 11 -1 20 4 20 5 0 9 -9 9 -20z m-1205
-20 c-23 -9 -41 3 -31 19 5 8 13 8 29 -1 21 -11 21 -11 2 -18z m102 15 c0 -8
-7 -15 -15 -15 -12 0 -12 3 -2 15 7 8 13 15 15 15 1 0 2 -7 2 -15z m703 -6 c0
-13 52 -2 62 13 4 7 8 9 8 3 0 -22 -17 -34 -55 -40 -35 -6 -41 -4 -51 18 -10
21 -8 23 13 19 13 -2 23 -8 23 -13z m465 0 c6 -19 0 -38 -9 -28 -10 12 -16 49
-7 49 5 0 13 -9 16 -21z m-1125 -4 c0 -8 -2 -15 -4 -15 -2 0 -6 7 -10 15 -3 8
-1 15 4 15 6 0 10 -7 10 -15z m1260 -6 c0 -5 -7 -9 -15 -9 -8 0 -15 7 -15 15
0 9 6 12 15 9 8 -4 15 -10 15 -15z m234 -9 c9 0 16 -4 16 -10 0 -5 -11 -10
-25 -10 -14 0 -25 4 -25 9 0 5 -3 18 -6 28 -5 17 -5 17 9 1 8 -10 22 -18 31
-18z m-624 0 c0 -5 -7 -10 -15 -10 -8 0 -15 5 -15 10 0 6 7 10 15 10 8 0 15
-4 15 -10z m327 -5 c0 -8 -6 -15 -14 -15 -14 0 -17 12 -6 23 11 11 20 8 20 -8z
m388 -5 c3 -5 -3 -10 -14 -10 -12 0 -21 5 -21 10 0 6 6 10 14 10 8 0 18 -4 21
-10z m-951 -31 c-8 -14 -24 -10 -24 6 0 9 6 12 15 9 8 -4 12 -10 9 -15z m186
11 c0 -5 -7 -10 -15 -10 -8 0 -15 5 -15 10 0 6 7 10 15 10 8 0 15 -4 15 -10z
m-343 -24 c0 -8 -8 -11 -19 -8 -28 7 -32 22 -5 22 13 0 24 -6 24 -14z m97 -1
c-7 -16 -54 -21 -54 -6 0 5 12 12 28 14 15 2 28 5 29 6 1 0 0 -6 -3 -14z m144
3 c-6 -17 -58 -29 -77 -18 -14 8 -14 9 2 10 10 0 15 5 12 10 -4 6 9 10 30 10
24 0 35 -4 33 -12z m452 2 c-8 -5 -22 -9 -30 -9 -10 0 -8 3 5 9 27 12 43 12
25 0z m-247 -7 c-7 -2 -19 -2 -25 0 -7 3 -2 5 12 5 14 0 19 -2 13 -5z m-536
-9 c-3 -3 -12 -4 -19 -1 -8 3 -5 6 6 6 11 1 17 -2 13 -5z m793 -13 c0 -10 -55
-9 -66 2 -4 4 9 7 29 7 21 0 37 -4 37 -9z m-1323 -7 c-3 -3 -12 -4 -19 -1 -8
3 -5 6 6 6 11 1 17 -2 13 -5z m500 0 c-3 -3 -12 -4 -19 -1 -8 3 -5 6 6 6 11 1
17 -2 13 -5z m-400 -20 c-3 -3 -12 -4 -19 -1 -8 3 -5 6 6 6 11 1 17 -2 13 -5z
m-80 -10 c-3 -3 -12 -4 -19 -1 -8 3 -5 6 6 6 11 1 17 -2 13 -5z m708 -4 c-3
-5 -16 -10 -28 -9 -21 0 -21 1 -2 9 28 12 37 12 30 0z m129 2 c3 -5 -1 -9 -9
-9 -8 0 -12 4 -9 9 3 4 7 8 9 8 2 0 6 -4 9 -8z m-106 -469 c-10 -2 -26 -2 -35
0 -10 3 -2 5 17 5 19 0 27 -2 18 -5z m10 -170 c-10 -2 -26 -2 -35 0 -10 3 -2
5 17 5 19 0 27 -2 18 -5z"/>
<path d="M2395 1990 c-3 -5 1 -10 9 -10 9 0 16 5 16 10 0 6 -4 10 -9 10 -6 0
-13 -4 -16 -10z"/>
<path d="M530 1885 c0 -12 -6 -27 -12 -33 -10 -10 -10 -15 1 -21 10 -7 8 -10
-9 -16 -17 -6 -19 -9 -9 -16 11 -6 11 -11 1 -21 -19 -19 -15 -41 6 -34 16 6
16 5 0 -8 -22 -16 -23 -26 -3 -26 8 0 15 -4 15 -10 0 -5 -7 -7 -15 -4 -10 4
-15 0 -15 -16 0 -11 4 -19 9 -15 5 3 12 1 16 -5 3 -5 -1 -10 -9 -10 -12 0 -16
-10 -16 -40 l0 -40 48 -2 c26 -1 56 -1 67 0 11 0 38 -5 60 -13 35 -13 83 -23
191 -42 23 -3 33 -1 37 11 5 12 -1 16 -26 17 l-32 1 30 8 c17 4 24 8 17 9 -7
0 -20 8 -28 16 -14 13 -13 15 8 13 17 -2 23 2 23 17 0 11 -6 19 -12 17 -7 -1
-13 2 -13 8 0 5 -7 10 -15 10 -8 0 -15 5 -15 10 0 6 6 10 14 10 28 0 27 19 -1
34 -23 12 -24 15 -8 16 18 0 18 1 2 17 -16 16 -18 16 -34 0 -11 -11 -13 -17
-5 -17 27 0 9 -15 -19 -16 -26 -1 -28 1 -14 9 14 8 15 11 4 18 -11 7 -9 9 5 9
18 0 18 1 -3 21 -13 13 -19 24 -13 28 7 4 6 15 -1 34 l-12 27 -17 -30 c-9 -16
-13 -30 -8 -30 6 0 10 -4 10 -10 0 -5 -13 -10 -30 -10 -24 0 -28 3 -23 18 4 9
11 20 17 24 7 5 3 13 -11 23 -23 16 -33 42 -11 29 8 -5 9 -2 5 10 -4 10 -7 22
-7 27 0 5 -7 9 -17 9 -9 0 -13 -3 -10 -6 3 -4 2 -15 -4 -25 -6 -13 -6 -19 1
-19 5 0 10 -4 10 -10 0 -5 -7 -10 -15 -10 -18 0 -19 -12 -4 -27 8 -8 7 -13 -1
-18 -7 -4 -16 -1 -21 6 -8 12 -11 12 -18 -1 -12 -18 -12 -19 26 -22 28 -2 30
-4 21 -22 -10 -19 -11 -19 -24 -1 -10 14 -17 16 -25 8 -6 -6 -18 -9 -25 -6
-11 4 -11 9 1 26 20 29 19 34 -7 41 -17 4 -19 8 -10 14 10 7 10 15 -2 43 -11
25 -15 28 -16 14z m194 -203 c3 -5 -1 -9 -9 -9 -8 0 -12 4 -9 9 3 4 7 8 9 8 2
0 6 -4 9 -8z"/>
<path d="M1618 1883 c6 -2 18 -2 25 0 6 3 1 5 -13 5 -14 0 -19 -2 -12 -5z"/>
<path d="M2593 1154 c-1 -139 2 -174 12 -174 8 0 16 8 18 18 4 16 5 16 6 0 1
-13 10 -18 31 -18 22 0 30 5 31 18 0 14 2 14 9 -3 8 -19 9 -19 9 3 1 19 -4 22
-38 22 l-38 0 4 38 c5 56 10 62 44 62 37 0 35 23 -2 28 -32 4 -49 32 -69 114
l-15 66 -2 -174z"/>
<path d="M1949 1178 c-24 -60 -26 -63 -62 -66 -20 -2 -37 -8 -37 -13 0 -6 8
-9 18 -8 9 1 24 1 32 0 13 -1 13 -2 0 -11 -13 -8 -12 -10 3 -10 9 0 17 -4 17
-10 0 -5 -7 -7 -15 -4 -11 5 -15 -1 -15 -19 0 -14 6 -28 13 -30 10 -4 10 -6 0
-6 -7 -1 -13 -9 -13 -18 0 -15 2 -16 10 -3 6 10 10 11 10 3 0 -29 29 -11 33
20 l4 32 1 -32 c1 -20 7 -33 15 -33 11 0 14 28 13 135 -1 74 -1 135 -2 135 0
0 -12 -28 -25 -62z"/>
<path d="M2396 1163 c-9 -29 -4 -93 8 -93 6 0 4 -5 -4 -10 -13 -8 -13 -11 -1
-19 7 -5 14 -20 14 -35 0 -19 5 -26 18 -26 11 0 19 7 20 18 0 14 2 14 9 -3 8
-19 9 -19 9 3 1 17 -5 22 -23 22 -23 0 -24 3 -19 38 7 48 13 54 13 14 0 -44
27 -43 33 1 4 31 4 31 5 -5 2 -37 3 -38 42 -38 39 0 40 1 41 38 l2 37 7 -40 7
-40 2 42 1 42 -82 4 -83 3 83 2 c62 1 83 5 80 15 -3 7 -29 14 -61 17 -31 3
-62 11 -69 18 -18 18 -46 15 -52 -5z"/>
<path d="M2330 1130 c0 -5 7 -10 15 -10 8 0 15 5 15 10 0 6 -7 10 -15 10 -8 0
-15 -4 -15 -10z"/>
<path d="M2372 1120 c0 -14 2 -19 5 -12 2 6 2 18 0 25 -3 6 -5 1 -5 -13z"/>
<path d="M1130 1090 c0 -27 60 -30 61 -2 0 14 2 14 9 -3 8 -19 9 -19 9 3 1 19
-4 22 -39 22 -33 0 -40 -3 -40 -20z"/>
<path d="M1222 1090 c0 -14 2 -19 5 -12 2 6 2 18 0 25 -3 6 -5 1 -5 -13z"/>
<path d="M1750 1100 c-10 -6 -2 -9 28 -8 23 0 42 4 42 9 0 12 -51 11 -70 -1z"/>
<path d="M2215 1100 c17 -7 17 -9 3 -9 -28 -1 -21 -21 7 -21 18 0 25 5 25 20
0 15 -6 20 -27 19 -25 0 -26 -1 -8 -9z"/>
<path d="M2330 1090 c0 -11 7 -20 15 -20 8 0 15 9 15 20 0 11 -7 20 -15 20 -8
0 -15 -9 -15 -20z"/>
<path d="M2650 1100 c0 -5 14 -10 30 -10 17 0 30 5 30 10 0 6 -13 10 -30 10
-16 0 -30 -4 -30 -10z"/>
<path d="M2722 1085 c0 -16 2 -22 5 -12 2 9 2 23 0 30 -3 6 -5 -1 -5 -18z"/>
<path d="M2740 1085 c0 -16 6 -25 15 -25 9 0 15 9 15 25 0 16 -6 25 -15 25 -9
0 -15 -9 -15 -25z"/>
<path d="M2780 1083 c0 -17 6 -23 23 -24 21 -1 21 -1 -3 -9 l-25 -8 27 -1 c20
-1 28 4 31 22 4 19 4 18 6 -5 1 -27 3 -28 51 -28 l50 0 0 40 0 40 -60 0 c-47
0 -60 -3 -60 -15 0 -8 -8 -15 -17 -14 -11 0 -13 3 -5 6 17 7 15 20 -3 20 -9 0
-15 -10 -15 -24z m147 -30 c-3 -10 -5 -4 -5 12 0 17 2 24 5 18 2 -7 2 -21 0
-30z m-30 5 c-3 -8 -6 -5 -6 6 -1 11 2 17 5 13 3 -3 4 -12 1 -19z"/>
<path d="M2950 1068 c0 -27 4 -38 15 -38 18 0 21 46 3 53 -10 4 -10 6 0 6 17
1 15 18 -3 18 -11 0 -15 -11 -15 -39z"/>
<path d="M3030 1075 c0 -28 4 -35 19 -35 14 0 21 8 24 28 4 25 4 25 6 -5 1
-44 31 -46 31 -3 0 31 -22 50 -59 50 -17 0 -21 -6 -21 -35z"/>
<path d="M1280 1085 c0 -8 8 -15 18 -15 13 0 14 2 3 9 -11 7 -11 9 0 14 10 4
9 6 -3 6 -10 1 -18 -6 -18 -14z"/>
<path d="M1531 1084 c0 -11 3 -14 6 -6 3 7 2 16 -1 19 -3 4 -6 -2 -5 -13z"/>
<path d="M1550 1085 c0 -10 10 -15 33 -15 22 0 28 3 18 9 -11 7 -11 9 0 14 8
3 -1 6 -18 6 -23 1 -33 -4 -33 -14z"/>
<path d="M1240 1080 c0 -5 7 -10 15 -10 8 0 15 5 15 10 0 6 -7 10 -15 10 -8 0
-15 -4 -15 -10z"/>
<path d="M1648 1073 c7 -3 16 -2 19 1 4 3 -2 6 -13 5 -11 0 -14 -3 -6 -6z"/>
<path d="M1718 1073 c12 -2 32 -2 45 0 12 2 2 4 -23 4 -25 0 -35 -2 -22 -4z"/>
<path d="M1798 1073 c7 -3 16 -2 19 1 4 3 -2 6 -13 5 -11 0 -14 -3 -6 -6z"/>
<path d="M2650 1070 c0 -5 8 -10 18 -11 14 0 14 -2 -3 -8 -17 -7 -16 -9 11
-13 28 -4 32 -1 32 19 0 19 -6 23 -29 23 -16 0 -29 -4 -29 -10z"/>
<path d="M2992 1055 c0 -16 2 -22 5 -12 2 9 2 23 0 30 -3 6 -5 -1 -5 -18z"/>
<path d="M3012 1055 c0 -16 2 -22 5 -12 2 9 2 23 0 30 -3 6 -5 -1 -5 -18z"/>
<path d="M3122 1055 c0 -16 2 -22 5 -12 2 9 2 23 0 30 -3 6 -5 -1 -5 -18z"/>
<path d="M2006 1045 c-20 -31 -21 -65 -1 -65 18 0 20 16 3 23 -7 3 13 6 45 6
31 1 57 6 57 11 0 6 -9 10 -21 10 -12 0 -23 8 -26 20 -7 28 -37 25 -57 -5z"/>
<path d="M2070 1054 c0 -8 9 -14 20 -14 11 0 20 6 20 13 0 7 -9 13 -20 14 -11
1 -20 -4 -20 -13z"/>
<path d="M2133 1063 c-18 -7 -16 -23 2 -23 8 0 15 7 15 15 0 8 -1 15 -2 14 -2
0 -9 -3 -15 -6z"/>
<path d="M3140 1051 c0 -12 6 -21 16 -21 9 0 14 7 12 17 -5 25 -28 28 -28 4z"/>
<path d="M1100 1035 c0 -14 5 -25 10 -25 6 0 10 11 10 25 0 14 -4 25 -10 25
-5 0 -10 -11 -10 -25z"/>
<path d="M1130 1021 c0 -42 11 -52 58 -50 l27 1 -25 8 -25 8 25 2 25 2 -25 8
c-24 8 -24 8 -2 9 32 1 27 21 -5 22 -17 1 -21 3 -10 6 28 7 19 23 -13 23 -28
0 -30 -2 -30 -39z"/>
<path d="M1220 1050 c0 -5 11 -10 25 -10 14 0 25 5 25 10 0 6 -11 10 -25 10
-14 0 -25 -4 -25 -10z"/>
<path d="M1280 1050 c0 -5 7 -10 15 -10 8 0 15 5 15 10 0 6 -7 10 -15 10 -8 0
-15 -4 -15 -10z"/>
<path d="M1360 1048 c0 -4 14 -8 30 -8 17 0 30 4 30 9 0 5 -13 9 -30 9 -16 -1
-30 -5 -30 -10z"/>
<path d="M1450 1050 c0 -5 7 -10 15 -10 8 0 15 5 15 10 0 6 -7 10 -15 10 -8 0
-15 -4 -15 -10z"/>
<path d="M1550 1050 c0 -5 14 -10 30 -10 17 0 30 5 30 10 0 6 -13 10 -30 10
-16 0 -30 -4 -30 -10z"/>
<path d="M1640 1050 c0 -5 7 -10 15 -10 8 0 15 5 15 10 0 6 -7 10 -15 10 -8 0
-15 -4 -15 -10z"/>
<path d="M1682 1035 c0 -16 2 -22 5 -12 2 9 2 23 0 30 -3 6 -5 -1 -5 -18z"/>
<path d="M1700 1035 c0 -24 3 -25 60 -25 57 0 60 1 60 25 0 16 -6 25 -15 25
-8 0 -15 -4 -15 -10 0 -5 6 -10 13 -10 8 0 7 -3 -3 -9 -18 -12 -31 -5 -23 14
4 12 -4 15 -36 15 -37 0 -41 -2 -41 -25z"/>
<path d="M1832 1035 c0 -16 2 -22 5 -12 2 9 2 23 0 30 -3 6 -5 -1 -5 -18z"/>
<path d="M1852 1035 c0 -16 2 -22 5 -12 2 9 2 23 0 30 -3 6 -5 -1 -5 -18z"/>
<path d="M1872 1035 c0 -16 2 -22 5 -12 2 9 2 23 0 30 -3 6 -5 -1 -5 -18z"/>
<path d="M2160 1050 c0 -5 7 -10 15 -10 8 0 15 5 15 10 0 6 -7 10 -15 10 -8 0
-15 -4 -15 -10z"/>
<path d="M2330 1050 c0 -5 7 -10 15 -10 8 0 15 5 15 10 0 6 -7 10 -15 10 -8 0
-15 -4 -15 -10z"/>
<path d="M3209 1050 c0 -3 -2 -22 -5 -42 l-4 -38 40 0 c36 0 40 3 40 24 0 19
-6 26 -27 29 l-28 4 28 2 c15 0 27 5 27 10 0 9 -69 21 -71 11z"/>
<path d="M2740 1040 c0 -5 7 -10 15 -10 8 0 15 5 15 10 0 6 -7 10 -15 10 -8 0
-15 -4 -15 -10z"/>
<path d="M1220 1020 c0 -5 11 -9 25 -8 14 1 25 6 25 10 0 4 -11 8 -25 8 -14 0
-25 -4 -25 -10z"/>
<path d="M1280 1020 c0 -5 7 -10 15 -10 8 0 15 5 15 10 0 6 -7 10 -15 10 -8 0
-15 -4 -15 -10z"/>
<path d="M1340 1018 c0 -4 18 -8 40 -8 22 0 40 5 40 10 0 6 -17 10 -40 8 -22
-1 -40 -6 -40 -10z"/>
<path d="M1450 1020 c0 -5 11 -10 25 -10 14 0 25 5 25 10 0 6 -11 10 -25 10
-14 0 -25 -4 -25 -10z"/>
<path d="M1530 1018 c0 -4 23 -8 50 -8 28 0 50 5 50 10 0 7 -20 10 -50 9 -27
-2 -50 -6 -50 -11z"/>
<path d="M2120 1000 c0 -20 5 -30 15 -30 10 0 15 10 15 30 0 20 -5 30 -15 30
-10 0 -15 -10 -15 -30z"/>
<path d="M2162 1000 c0 -19 2 -27 5 -17 2 9 2 25 0 35 -3 9 -5 1 -5 -18z"/>
<path d="M2332 1000 c0 -19 2 -27 5 -17 2 9 2 25 0 35 -3 9 -5 1 -5 -18z"/>
<path d="M2352 1000 c0 -19 2 -27 5 -17 2 9 2 25 0 35 -3 9 -5 1 -5 -18z"/>
<path d="M2480 1000 c0 -17 6 -20 50 -20 42 0 50 3 50 18 0 15 -9 19 -50 21
-44 2 -50 0 -50 -19z"/>
<path d="M2722 1000 c0 -14 2 -19 5 -12 2 6 2 18 0 25 -3 6 -5 1 -5 -13z"/>
<path d="M2740 1000 c0 -11 7 -20 15 -20 8 0 15 9 15 20 0 11 -7 20 -15 20 -8
0 -15 -9 -15 -20z"/>
<path d="M2781 998 c0 -22 1 -22 9 -3 l9 20 1 -20 1 -20 9 20 c7 17 9 17 9 3
1 -15 11 -18 61 -18 33 0 60 4 60 10 0 6 -10 10 -22 11 -22 1 -22 1 2 9 17 5
-1 8 -57 9 -80 1 -83 0 -82 -21z"/>
<path d="M2950 1000 c0 -11 7 -20 15 -20 8 0 15 9 15 20 0 11 -7 20 -15 20 -8
0 -15 -9 -15 -20z"/>
<path d="M2991 1003 c-1 -14 5 -23 14 -23 9 0 15 9 14 23 0 21 -1 21 -8 2 l-8
-20 -5 20 c-5 18 -6 18 -7 -2z"/>
<path d="M3030 998 c0 -19 2 -20 10 -8 6 10 10 11 10 3 0 -7 9 -13 20 -13 13
0 20 7 20 20 0 16 -7 20 -30 20 -24 0 -30 -4 -30 -22z"/>
<path d="M3100 1000 c0 -11 7 -20 15 -20 8 0 15 9 15 20 0 11 -7 20 -15 20 -8
0 -15 -9 -15 -20z"/>
<path d="M3142 1000 c0 -14 2 -19 5 -12 2 6 2 18 0 25 -3 6 -5 1 -5 -13z"/>
<path d="M3292 995 c0 -16 2 -22 5 -12 2 9 2 23 0 30 -3 6 -5 -1 -5 -18z"/>
<path d="M1097 993 c-12 -12 -7 -22 8 -17 8 4 15 10 15 15 0 11 -14 12 -23 2z"/>
<path d="M1228 993 c7 -3 16 -2 19 1 4 3 -2 6 -13 5 -11 0 -14 -3 -6 -6z"/>
<path d="M1280 985 c0 -9 10 -15 25 -15 14 0 25 6 25 13 0 7 -11 14 -25 15
-16 1 -25 -3 -25 -13z"/>
<path d="M1340 985 c0 -11 11 -15 40 -15 29 0 40 4 40 15 0 11 -11 15 -40 15
-29 0 -40 -4 -40 -15z"/>
<path d="M1451 984 c0 -11 3 -14 6 -6 3 7 2 16 -1 19 -3 4 -6 -2 -5 -13z"/>
<path d="M1470 985 c0 -8 7 -15 15 -15 8 0 15 7 15 15 0 8 -7 15 -15 15 -8 0
-15 -7 -15 -15z"/>
<path d="M1511 984 c0 -11 3 -14 6 -6 3 7 2 16 -1 19 -3 4 -6 -2 -5 -13z"/>
<path d="M1530 985 c0 -8 9 -15 20 -15 11 0 20 7 20 15 0 8 -9 15 -20 15 -11
0 -20 -7 -20 -15z"/>
<path d="M1580 986 c0 -9 8 -12 25 -8 14 2 25 8 25 13 0 5 -11 9 -25 9 -14 0
-25 -6 -25 -14z"/>
<path d="M1641 984 c0 -11 3 -14 6 -6 3 7 2 16 -1 19 -3 4 -6 -2 -5 -13z"/>
<path d="M1661 984 c0 -11 3 -14 6 -6 3 7 2 16 -1 19 -3 4 -6 -2 -5 -13z"/>
<path d="M1681 984 c0 -11 3 -14 6 -6 3 7 2 16 -1 19 -3 4 -6 -2 -5 -13z"/>
<path d="M1701 984 c0 -11 3 -14 6 -6 3 7 2 16 -1 19 -3 4 -6 -2 -5 -13z"/>
<path d="M1720 985 c0 -12 12 -15 53 -14 43 1 47 3 22 9 l-30 7 30 5 c22 4 15
5 -22 7 -41 1 -53 -2 -53 -14z"/>
<path d="M1831 984 c0 -11 3 -14 6 -6 3 7 2 16 -1 19 -3 4 -6 -2 -5 -13z"/>
<path d="M1851 984 c0 -11 3 -14 6 -6 3 7 2 16 -1 19 -3 4 -6 -2 -5 -13z"/>
<path d="M1871 984 c0 -11 3 -14 6 -6 3 7 2 16 -1 19 -3 4 -6 -2 -5 -13z"/>
<path d="M2030 991 c0 -11 25 -21 54 -21 13 0 23 6 23 15 0 11 -11 15 -39 15
-21 0 -38 -4 -38 -9z"/>
<path d="M2371 984 c0 -11 3 -14 6 -6 3 7 2 16 -1 19 -3 4 -6 -2 -5 -13z"/>
<path d="M3181 984 c0 -11 3 -14 6 -6 3 7 2 16 -1 19 -3 4 -6 -2 -5 -13z"/>
<path d="M1228 973 c7 -3 16 -2 19 1 4 3 -2 6 -13 5 -11 0 -14 -3 -6 -6z"/>
<path d="M2415 960 c-3 -5 -1 -10 4 -10 6 0 11 5 11 10 0 6 -2 10 -4 10 -3 0
-8 -4 -11 -10z"/>
<path d="M1148 953 c12 -2 32 -2 45 0 12 2 2 4 -23 4 -25 0 -35 -2 -22 -4z"/>
<path d="M1293 953 c9 -2 23 -2 30 0 6 3 -1 5 -18 5 -16 0 -22 -2 -12 -5z"/>
<path d="M1358 953 c12 -2 32 -2 45 0 12 2 2 4 -23 4 -25 0 -35 -2 -22 -4z"/>
<path d="M1530 946 c0 -8 12 -17 28 -19 l27 -4 -27 -2 c-43 -2 -33 -16 12 -16
39 -1 56 17 28 28 -7 3 -4 6 7 7 l20 1 -20 9 c-33 14 -75 12 -75 -4z"/>
<path d="M1662 930 c0 -19 2 -27 5 -17 2 9 2 25 0 35 -3 9 -5 1 -5 -18z"/>
<path d="M1682 935 c0 -16 2 -22 5 -12 2 9 2 23 0 30 -3 6 -5 -1 -5 -18z"/>
<path d="M1744 945 c17 -9 32 -12 35 -6 3 5 15 11 26 14 11 2 -5 5 -35 6 l-55
1 29 -15z"/>
<path d="M1830 945 c0 -6 16 -11 35 -11 25 0 35 4 35 16 0 13 -1 13 -10 0 -5
-8 -10 -10 -10 -5 0 6 -11 10 -25 10 -14 0 -25 -5 -25 -10z"/>
<path d="M1918 953 c7 -3 16 -2 19 1 4 3 -2 6 -13 5 -11 0 -14 -3 -6 -6z"/>
<path d="M2018 953 c17 -2 47 -2 65 0 17 2 3 4 -33 4 -36 0 -50 -2 -32 -4z"/>
<path d="M2128 953 c7 -3 16 -2 19 1 4 3 -2 6 -13 5 -11 0 -14 -3 -6 -6z"/>
<path d="M2223 953 c15 -2 39 -2 55 0 15 2 2 4 -28 4 -30 0 -43 -2 -27 -4z"/>
<path d="M1470 942 c-16 -7 -26 -42 -13 -42 9 0 43 36 43 45 0 7 -11 5 -30 -3z"/>
<path d="M1513 910 c0 -25 2 -35 4 -22 2 12 2 32 0 45 -2 12 -4 2 -4 -23z"/>
<path d="M2740 940 c0 -5 7 -10 15 -10 8 0 15 5 15 10 0 6 -7 10 -15 10 -8 0
-15 -4 -15 -10z"/>
<path d="M2783 905 c0 -27 2 -38 4 -22 2 15 2 37 0 50 -2 12 -4 0 -4 -28z"/>
<path d="M2803 905 c0 -27 2 -38 4 -22 2 15 2 37 0 50 -2 12 -4 0 -4 -28z"/>
<path d="M2964 942 c-18 -11 -16 -89 2 -89 11 0 14 12 13 49 -1 26 -3 48 -3
48 -1 0 -6 -4 -12 -8z"/>
<path d="M2990 941 c0 -6 5 -11 10 -11 6 0 10 -10 9 -22 0 -22 -1 -22 -9 -3
-7 16 -9 13 -9 -17 -1 -20 4 -39 12 -41 10 -4 10 -6 0 -6 -19 -1 -16 -51 2
-51 12 0 14 14 12 77 -1 50 -6 78 -14 81 -7 2 -13 -1 -13 -7z"/>
<path d="M3100 925 c0 -20 5 -25 25 -25 21 0 25 5 24 28 0 24 -1 25 -9 7 -7
-17 -9 -17 -9 -2 -1 28 -31 21 -31 -8z"/>
<path d="M3159 903 c-1 -27 -3 -40 -6 -30 -6 21 -53 24 -53 2 0 -10 -11 -15
-35 -15 -36 0 -48 -15 -17 -23 16 -4 16 -5 0 -6 -11 -1 -18 -9 -18 -21 0 -17
7 -20 50 -20 46 0 50 2 50 24 0 18 -7 26 -22 29 -23 4 -23 4 -1 6 12 0 24 9
26 19 3 9 5 -4 6 -30 1 -36 5 -48 16 -48 12 0 15 16 15 80 0 85 -9 112 -11 33z"/>
<path d="M3182 873 l-2 -83 53 2 52 1 -45 7 -45 7 42 1 c42 2 42 2 40 40 -1
20 -6 40 -12 44 -6 5 -5 8 3 8 6 0 12 9 12 20 0 17 -7 20 -40 20 -23 0 -40 -5
-40 -11 0 -6 9 -9 19 -6 27 7 42 -5 25 -21 -8 -7 -14 -8 -14 -2 0 5 -7 10 -15
10 -10 0 -16 -11 -17 -32 -1 -22 -4 -15 -8 22 -6 53 -7 52 -8 -27z"/>
<path d="M1111 924 c0 -11 3 -14 6 -6 3 7 2 16 -1 19 -3 4 -6 -2 -5 -13z"/>
<path d="M1130 910 c0 -28 3 -30 36 -30 19 0 33 -4 29 -9 -3 -5 -1 -12 5 -16
6 -4 10 4 10 19 0 19 -6 26 -27 29 l-28 4 28 2 c17 0 27 7 27 16 0 11 -11 15
-40 15 -38 0 -40 -2 -40 -30z"/>
<path d="M1222 883 c-2 -50 1 -63 13 -63 8 0 14 3 14 8 -4 24 4 33 11 12 7
-22 8 -21 9 13 1 27 -3 37 -14 37 -8 0 -16 -8 -17 -17 0 -10 -4 2 -8 27 -7 45
-7 44 -8 -17z"/>
<path d="M1240 918 c0 -10 7 -18 15 -18 8 0 15 8 15 18 0 10 -7 19 -15 19 -8
0 -15 -9 -15 -19z"/>
<path d="M1308 933 c7 -3 16 -2 19 1 4 3 -2 6 -13 5 -11 0 -14 -3 -6 -6z"/>
<path d="M1342 886 c0 -32 -4 -50 -11 -48 -6 1 -10 -10 -10 -25 1 -19 3 -22 6
-10 4 16 13 18 49 15 31 -2 44 1 44 9 0 7 -7 13 -15 13 -8 0 -15 4 -15 9 0 5
-10 12 -22 14 -14 3 -9 5 15 6 45 1 50 18 6 19 -35 1 -54 12 -21 12 12 0 22 6
22 14 0 8 8 16 18 19 9 2 -2 4 -24 4 l-42 1 0 -52z"/>
<path d="M1728 933 c7 -3 16 -2 19 1 4 3 -2 6 -13 5 -11 0 -14 -3 -6 -6z"/>
<path d="M1798 933 c7 -3 16 -2 19 1 4 3 -2 6 -13 5 -11 0 -14 -3 -6 -6z"/>
<path d="M1918 933 c7 -3 16 -2 19 1 4 3 -2 6 -13 5 -11 0 -14 -3 -6 -6z"/>
<path d="M1993 905 c0 -22 2 -30 4 -17 2 12 2 30 0 40 -3 9 -5 -1 -4 -23z"/>
<path d="M2010 925 c0 -9 10 -15 26 -15 14 0 23 -4 19 -10 -3 -5 -15 -10 -26
-10 -10 0 -19 -7 -19 -15 0 -8 6 -15 13 -15 6 0 29 -3 50 -6 30 -5 37 -4 37
10 0 11 -9 16 -27 17 l-28 1 30 8 c21 5 24 8 10 10 l-20 1 20 9 c18 8 18 9 -5
10 l-25 2 25 8 c20 6 14 8 -27 9 -41 1 -53 -2 -53 -14z"/>
<path d="M2120 930 c0 -5 5 -10 11 -10 5 0 7 5 4 10 -3 6 -8 10 -11 10 -2 0
-4 -4 -4 -10z"/>
<path d="M2172 928 c-7 -7 -11 -28 -11 -47 1 -23 3 -29 7 -16 l5 20 8 -20 c5
-14 8 -7 8 28 1 51 1 53 -17 35z"/>
<path d="M2240 927 c0 -8 14 -12 40 -12 26 0 40 4 40 12 0 8 -14 13 -40 13
-26 0 -40 -5 -40 -13z"/>
<path d="M2331 924 c0 -11 3 -14 6 -6 3 7 2 16 -1 19 -3 4 -6 -2 -5 -13z"/>
<path d="M2351 924 c0 -11 3 -14 6 -6 3 7 2 16 -1 19 -3 4 -6 -2 -5 -13z"/>
<path d="M2420 929 c0 -5 9 -9 19 -9 11 0 26 -3 35 -6 11 -4 16 -1 15 12 0 11
-3 14 -5 7 -4 -8 -14 -9 -35 -3 -17 5 -29 5 -29 -1z"/>
<path d="M2500 920 c0 -25 17 -26 23 -2 4 16 5 16 6 0 2 -27 51 -24 51 2 0 17
-7 20 -40 20 -33 0 -40 -3 -40 -20z"/>
<path d="M2590 921 c0 -12 6 -21 14 -21 17 0 15 32 -2 38 -7 2 -12 -6 -12 -17z"/>
<path d="M2655 931 l30 -7 -30 -8 -30 -8 30 -11 30 -11 -30 -7 c-27 -6 -26 -7
13 -8 49 -1 61 25 15 32 l-28 4 28 2 c17 0 27 7 27 16 0 11 -11 15 -42 14 -39
-1 -40 -2 -13 -8z"/>
<path d="M2823 868 l0 -78 61 1 c46 1 55 3 36 9 -24 8 -24 8 -2 9 32 1 28 29
-5 34 l-28 4 28 2 c35 1 39 37 5 44 -22 4 -22 4 2 7 l25 2 -25 8 c-24 8 -24 8
-2 9 12 1 22 6 22 11 0 6 -24 10 -52 9 -42 -1 -48 -3 -28 -9 24 -8 24 -8 3 -9
-19 -1 -23 -7 -25 -33 -1 -29 -2 -27 -8 12 -6 39 -7 34 -7 -32z m54 -55 c-3
-10 -5 -4 -5 12 0 17 2 24 5 18 2 -7 2 -21 0 -30z"/>
<path d="M3030 905 c0 -32 3 -35 28 -35 26 0 29 4 30 35 1 32 -1 35 -28 35
-28 0 -30 -3 -30 -35z"/>
<path d="M3292 920 c0 -14 2 -19 5 -12 2 6 2 18 0 25 -3 6 -5 1 -5 -13z"/>
<path d="M1952 910 c0 -14 2 -19 5 -12 2 6 2 18 0 25 -3 6 -5 1 -5 -13z"/>
<path d="M1972 900 c0 -19 2 -27 5 -17 2 9 2 25 0 35 -3 9 -5 1 -5 -18z"/>
<path d="M2200 890 c0 -38 2 -40 30 -40 20 0 30 -5 30 -15 0 -9 9 -15 23 -15
18 0 19 2 7 10 -10 6 -11 10 -2 10 6 0 12 7 12 15 0 8 5 15 10 15 6 0 10 7 10
15 0 19 -43 30 -67 17 -12 -7 -25 -7 -34 -1 -10 6 -10 9 -1 9 6 0 12 5 12 10
0 6 -7 10 -15 10 -11 0 -15 -11 -15 -40z m67 -26 c-3 -3 -12 -4 -19 -1 -8 3
-5 6 6 6 11 1 17 -2 13 -5z"/>
<path d="M1281 888 c-1 -28 3 -38 14 -38 10 0 15 10 15 28 0 20 -3 23 -9 13
-7 -11 -10 -9 -14 10 -3 17 -5 13 -6 -13z"/>
<path d="M1323 885 c0 -22 2 -30 4 -17 2 12 2 30 0 40 -3 9 -5 -1 -4 -23z"/>
<path d="M1400 910 c0 -5 5 -10 10 -10 6 0 10 5 10 10 0 6 -4 10 -10 10 -5 0
-10 -4 -10 -10z"/>
<path d="M1720 910 c0 -5 7 -10 15 -10 8 0 15 5 15 10 0 6 -7 10 -15 10 -8 0
-15 -4 -15 -10z"/>
<path d="M1760 910 c0 -5 5 -10 11 -10 5 0 7 5 4 10 -3 6 -8 10 -11 10 -2 0
-4 -4 -4 -10z"/>
<path d="M1830 910 c0 -5 16 -10 35 -10 19 0 35 5 35 10 0 6 -16 10 -35 10
-19 0 -35 -4 -35 -10z"/>
<path d="M1925 900 c3 -5 2 -10 -3 -10 -6 0 -11 -36 -11 -80 -1 -75 9 -101 23
-64 10 26 7 52 -6 57 -10 4 -10 6 0 6 6 1 12 11 12 24 0 13 6 29 13 36 10 11
10 13 0 7 -9 -5 -13 0 -13 13 0 12 -5 21 -11 21 -5 0 -7 -4 -4 -10z"/>
<path d="M2127 903 c-13 -13 -7 -53 8 -53 10 0 15 10 15 30 0 29 -9 38 -23 23z"/>
<path d="M2391 883 c-1 -25 3 -32 22 -36 l22 -4 -22 -2 c-33 -2 -28 -16 10
-29 l32 -11 -32 5 c-39 7 -45 -11 -8 -20 17 -4 25 -14 26 -29 1 -21 1 -21 9 3
l8 25 2 -25 c1 -23 2 -23 10 -5 7 16 9 17 9 3 1 -24 12 -28 51 -17 l35 9 -40
-5 c-28 -3 -35 -2 -25 5 8 5 25 10 38 10 12 0 22 6 22 13 0 8 4 7 10 -3 8 -12
10 -11 10 7 0 18 -7 22 -37 26 l-38 4 38 1 c29 2 37 6 37 21 0 16 -9 21 -52
25 -115 13 -116 13 -75 15 20 0 37 6 37 11 0 6 -17 10 -37 11 -34 1 -35 2 -13
9 l25 8 -27 1 c-24 1 -28 -3 -29 -26 l-1 -28 -8 30 -8 30 -1 -32z m139 -53
c-20 -13 -47 -13 -55 0 -4 6 9 10 32 10 28 0 34 -3 23 -10z m-2 -47 c-10 -2
-28 -2 -40 0 -13 2 -5 4 17 4 22 1 32 -1 23 -4z"/>
<path d="M1473 893 c-31 -6 -29 -23 2 -23 16 0 25 6 25 15 0 8 -1 14 -2 14 -2
-1 -13 -4 -25 -6z"/>
<path d="M2331 888 c-1 -10 6 -18 14 -18 8 0 15 8 15 18 0 13 -2 14 -9 3 -7
-11 -9 -11 -14 0 -4 10 -6 9 -6 -3z"/>
<path d="M2371 884 c0 -11 3 -14 6 -6 3 7 2 16 -1 19 -3 4 -6 -2 -5 -13z"/>
<path d="M1575 880 c-19 -7 -18 -9 8 -19 35 -14 47 -14 47 -1 0 6 -3 9 -7 9
-5 -1 -15 -1 -23 0 -13 1 -13 2 0 11 18 12 3 12 -25 0z"/>
<path d="M1642 870 c0 -14 2 -19 5 -12 2 6 2 18 0 25 -3 6 -5 1 -5 -13z"/>
<path d="M1661 874 c0 -11 3 -14 6 -6 3 7 2 16 -1 19 -3 4 -6 -2 -5 -13z"/>
<path d="M1681 874 c0 -11 3 -14 6 -6 3 7 2 16 -1 19 -3 4 -6 -2 -5 -13z"/>
<path d="M1700 874 c0 -7 10 -9 25 -6 14 2 25 8 25 13 0 5 -11 8 -25 7 -14 -1
-25 -8 -25 -14z"/>
<path d="M1760 875 c0 -8 5 -15 10 -15 6 0 10 7 10 15 0 8 -4 15 -10 15 -5 0
-10 -7 -10 -15z"/>
<path d="M1791 874 c0 -11 3 -14 6 -6 3 7 2 16 -1 19 -3 4 -6 -2 -5 -13z"/>
<path d="M1811 874 c0 -11 3 -14 6 -6 3 7 2 16 -1 19 -3 4 -6 -2 -5 -13z"/>
<path d="M1830 870 c0 -16 7 -20 35 -20 28 0 35 4 35 20 0 16 -7 20 -35 20
-28 0 -35 -4 -35 -20z m37 -6 c-3 -3 -12 -4 -19 -1 -8 3 -5 6 6 6 11 1 17 -2
13 -5z"/>
<path d="M2500 880 c0 -5 5 -10 10 -10 6 0 10 5 10 10 0 6 -4 10 -10 10 -5 0
-10 -4 -10 -10z"/>
<path d="M2545 880 c-18 -8 -17 -9 8 -9 15 -1 27 4 27 9 0 12 -8 12 -35 0z"/>
<path d="M2590 880 c0 -5 7 -10 16 -10 8 0 12 5 9 10 -3 6 -10 10 -16 10 -5 0
-9 -4 -9 -10z"/>
<path d="M1478 853 c12 -2 32 -2 45 0 12 2 2 4 -23 4 -25 0 -35 -2 -22 -4z"/>
<path d="M1951 844 c-1 -12 5 -21 14 -21 9 0 15 9 15 21 0 16 -2 18 -9 7 -7
-11 -9 -11 -14 0 -3 9 -6 6 -6 -7z"/>
<path d="M2330 835 c0 -16 6 -25 15 -25 9 0 15 9 15 25 0 16 -6 25 -15 25 -9
0 -15 -9 -15 -25z"/>
<path d="M2372 840 c0 -14 2 -19 5 -12 2 6 2 18 0 25 -3 6 -5 1 -5 -13z"/>
<path d="M2597 853 c-4 -3 -6 -27 -6 -52 1 -25 3 -38 6 -28 2 9 10 17 16 17 7
0 6 4 -3 10 -13 9 -13 10 0 10 13 0 13 1 0 10 -8 5 -10 10 -4 10 6 0 11 7 11
15 0 16 -9 19 -20 8z"/>
<path d="M2650 847 c0 -9 10 -12 30 -9 17 2 30 8 30 13 0 5 -13 9 -30 9 -18 0
-30 -5 -30 -13z"/>
<path d="M1990 836 c0 -10 9 -16 25 -16 14 0 25 5 25 10 0 6 -4 10 -9 10 -5 0
-16 3 -25 6 -11 4 -16 1 -16 -10z"/>
<path d="M2782 830 c0 -14 2 -19 5 -12 2 6 2 18 0 25 -3 6 -5 1 -5 -13z"/>
<path d="M2801 834 c0 -11 3 -14 6 -6 3 7 2 16 -1 19 -3 4 -6 -2 -5 -13z"/>
<path d="M1283 815 c0 -15 5 -25 13 -25 8 0 14 10 14 25 0 15 -6 25 -14 25 -8
0 -13 -10 -13 -25z"/>
<path d="M1431 824 c0 -11 3 -14 6 -6 3 7 2 16 -1 19 -3 4 -6 -2 -5 -13z"/>
<path d="M1451 824 c0 -11 3 -14 6 -6 3 7 2 16 -1 19 -3 4 -6 -2 -5 -13z"/>
<path d="M1471 813 c0 -16 3 -22 6 -14 4 10 7 10 13 1 5 -8 16 -9 30 -5 18 6
20 9 9 16 -10 6 -11 9 -1 9 6 0 12 5 12 10 0 6 -16 10 -35 10 -32 0 -35 -3
-34 -27z"/>
<path d="M1550 830 c0 -5 5 -10 10 -10 6 0 10 5 10 10 0 6 -4 10 -10 10 -5 0
-10 -4 -10 -10z"/>
<path d="M1590 830 c-12 -8 -9 -10 13 -10 15 0 27 5 27 10 0 13 -20 13 -40 0z"/>
<path d="M1650 830 c-13 -8 -12 -10 3 -10 9 0 17 5 17 10 0 12 -1 12 -20 0z"/>
<path d="M1700 836 c0 -2 7 -6 15 -10 8 -3 15 -1 15 4 0 6 -7 10 -15 10 -8 0
-15 -2 -15 -4z"/>
<path d="M1740 830 c0 -5 9 -10 20 -10 11 0 20 5 20 10 0 6 -9 10 -20 10 -11
0 -20 -4 -20 -10z"/>
<path d="M1830 828 c0 -4 16 -8 35 -8 19 0 35 2 35 4 0 2 -16 6 -35 8 -19 2
-35 0 -35 -4z"/>
<path d="M2050 830 c0 -5 14 -10 30 -10 17 0 30 5 30 10 0 6 -13 10 -30 10
-16 0 -30 -4 -30 -10z"/>
<path d="M2200 830 c0 -5 11 -10 25 -10 14 0 25 5 25 10 0 6 -11 10 -25 10
-14 0 -25 -4 -25 -10z"/>
<path d="M2952 815 c0 -16 2 -22 5 -12 2 9 2 23 0 30 -3 6 -5 -1 -5 -18z"/>
<path d="M2972 815 c0 -16 2 -22 5 -12 2 9 2 23 0 30 -3 6 -5 -1 -5 -18z"/>
<path d="M3291 824 c0 -11 3 -14 6 -6 3 7 2 16 -1 19 -3 4 -6 -2 -5 -13z"/>
<path d="M2688 823 c7 -3 16 -2 19 1 4 3 -2 6 -13 5 -11 0 -14 -3 -6 -6z"/>
<path d="M2740 820 c0 -5 7 -10 15 -10 8 0 15 5 15 10 0 6 -7 10 -15 10 -8 0
-15 -4 -15 -10z"/>
<path d="M2650 780 c0 -35 3 -40 23 -40 13 0 17 3 11 8 -9 5 -8 10 1 19 11 10
15 10 18 0 3 -7 6 -3 6 9 1 13 -8 25 -24 32 -36 16 -35 17 -35 -28z"/>
<path d="M1340 801 c0 -4 11 -6 25 -3 14 2 25 6 25 8 0 2 -11 4 -25 4 -14 0
-25 -4 -25 -9z"/>
<path d="M1555 799 c6 -8 -19 -19 -48 -20 -43 -2 25 -17 78 -17 45 -1 47 0 25
10 -25 11 -25 11 -2 15 37 7 24 23 -18 21 -21 -1 -37 -5 -35 -9z"/>
<path d="M1640 795 c0 -8 7 -15 15 -15 8 0 15 7 15 15 0 8 -7 15 -15 15 -8 0
-15 -7 -15 -15z"/>
<path d="M1682 785 c0 -16 2 -22 5 -12 2 9 2 23 0 30 -3 6 -5 -1 -5 -18z"/>
<path d="M1700 800 c0 -5 7 -10 15 -10 8 0 15 5 15 10 0 6 -7 10 -15 10 -8 0
-15 -4 -15 -10z"/>
<path d="M1830 801 c0 -6 8 -8 18 -6 10 2 25 -1 33 -6 10 -6 10 -9 2 -9 -7 0
-13 -5 -13 -11 0 -5 4 -8 9 -4 5 3 12 -3 14 -12 3 -10 5 -1 6 20 1 36 0 37
-34 37 -19 0 -35 -4 -35 -9z"/>
<path d="M2005 799 c-13 -5 2 -8 43 -8 35 -1 62 3 62 9 0 12 -75 11 -105 -1z"/>
<path d="M2200 783 c0 -18 6 -23 25 -23 26 0 34 15 13 23 -10 4 -10 6 0 6 23
2 12 16 -13 16 -19 0 -25 -5 -25 -22z"/>
<path d="M2260 800 c0 -5 10 -10 23 -10 18 0 19 2 7 10 -19 13 -30 13 -30 0z"/>
<path d="M1748 793 c6 -2 18 -2 25 0 6 3 1 5 -13 5 -14 0 -19 -2 -12 -5z"/>
<path d="M2338 793 c7 -3 16 -2 19 1 4 3 -2 6 -13 5 -11 0 -14 -3 -6 -6z"/>
<path d="M2748 793 c7 -3 16 -2 19 1 4 3 -2 6 -13 5 -11 0 -14 -3 -6 -6z"/>
<path d="M1458 773 c7 -3 16 -2 19 1 4 3 -2 6 -13 5 -11 0 -14 -3 -6 -6z"/>
<path d="M1700 770 c0 -5 7 -10 15 -10 8 0 15 5 15 10 0 6 -7 10 -15 10 -8 0
-15 -4 -15 -10z"/>
<path d="M1740 770 c0 -5 9 -10 20 -10 11 0 20 5 20 10 0 6 -9 10 -20 10 -11
0 -20 -4 -20 -10z"/>
<path d="M1950 768 c0 -4 7 -8 15 -8 8 0 15 4 15 8 0 5 -7 9 -15 9 -8 0 -15
-4 -15 -9z"/>
<path d="M1990 770 c0 -5 7 -10 15 -10 8 0 15 5 15 10 0 6 -7 10 -15 10 -8 0
-15 -4 -15 -10z"/>
<path d="M2030 760 c0 -12 7 -20 18 -20 14 0 15 2 2 10 -12 8 -9 10 13 10 15
0 27 5 27 10 0 6 -13 10 -30 10 -23 0 -30 -4 -30 -20z"/>
<path d="M2120 770 c0 -6 7 -10 15 -10 8 0 15 2 15 4 0 2 -7 6 -15 10 -8 3
-15 1 -15 -4z"/>
<path d="M2285 769 c8 -12 75 -12 75 0 0 5 -18 9 -40 9 -23 1 -38 -3 -35 -9z"/>
<path d="M2410 770 c0 -5 5 -10 11 -10 5 0 7 5 4 10 -3 6 -8 10 -11 10 -2 0
-4 -4 -4 -10z"/>
<path d="M2612 760 c0 -14 2 -19 5 -12 2 6 2 18 0 25 -3 6 -5 1 -5 -13z"/>
<path d="M2632 760 c0 -14 2 -19 5 -12 2 6 2 18 0 25 -3 6 -5 1 -5 -13z"/>
<path d="M2740 770 c0 -5 7 -10 15 -10 8 0 15 5 15 10 0 6 -7 10 -15 10 -8 0
-15 -4 -15 -10z"/>
<path d="M2820 771 c0 -5 14 -9 30 -9 17 1 33 -2 37 -5 3 -4 -1 -7 -10 -7 -24
0 -23 -50 1 -51 14 0 14 -2 -3 -9 -15 -7 -10 -9 23 -9 41 -1 42 0 41 32 0 27
-2 29 -9 12 -7 -16 -9 -13 -9 18 l-1 37 -50 0 c-27 0 -50 -4 -50 -9z"/>
<path d="M2931 764 c0 -11 3 -14 6 -6 3 7 2 16 -1 19 -3 4 -6 -2 -5 -13z"/>
<path d="M2950 765 c0 -9 6 -12 15 -9 8 4 15 10 15 15 0 5 -7 9 -15 9 -8 0
-15 -7 -15 -15z"/>
<path d="M2990 770 c0 -5 7 -10 15 -10 8 0 15 5 15 10 0 6 -7 10 -15 10 -8 0
-15 -4 -15 -10z"/>
<path d="M3030 731 l0 -50 40 1 c46 0 53 15 13 24 -42 9 -50 12 -30 13 10 1
17 10 18 24 1 16 2 18 6 5 3 -13 15 -18 39 -18 33 0 46 13 22 23 -10 4 -10 6
0 6 6 1 12 6 12 11 0 6 -27 10 -60 10 l-60 0 0 -49z"/>
<path d="M3210 770 c-33 -7 -31 -7 18 -9 29 0 52 3 52 9 0 11 -17 11 -70 0z"/>
<path d="M1358 763 c12 -2 32 -2 45 0 12 2 2 4 -23 4 -25 0 -35 -2 -22 -4z"/>
<path d="M1648 763 c7 -3 16 -2 19 1 4 3 -2 6 -13 5 -11 0 -14 -3 -6 -6z"/>
<path d="M1445 750 c-18 -8 -17 -9 8 -9 15 -1 27 4 27 9 0 12 -8 12 -35 0z"/>
<path d="M1490 751 c0 -6 10 -11 23 -11 22 -1 22 -1 -3 -15 -23 -13 -20 -14
48 -15 65 0 72 2 72 20 0 18 -7 20 -54 20 -30 0 -61 3 -70 6 -9 3 -16 1 -16
-5z"/>
<path d="M1345 740 c-4 -6 8 -10 29 -10 19 0 38 5 41 10 4 6 -8 10 -29 10 -19
0 -38 -4 -41 -10z"/>
<path d="M1640 740 c0 -5 7 -10 15 -10 8 0 15 5 15 10 0 6 -7 10 -15 10 -8 0
-15 -4 -15 -10z"/>
<path d="M1682 730 c0 -14 2 -19 5 -12 2 6 2 18 0 25 -3 6 -5 1 -5 -13z"/>
<path d="M1708 743 c7 -3 16 -2 19 1 4 3 -2 6 -13 5 -11 0 -14 -3 -6 -6z"/>
<path d="M1748 743 c6 -2 18 -2 25 0 6 3 1 5 -13 5 -14 0 -19 -2 -12 -5z"/>
<path d="M1872 730 c0 -14 2 -19 5 -12 2 6 2 18 0 25 -3 6 -5 1 -5 -13z"/>
<path d="M1990 740 c0 -5 4 -10 9 -10 6 0 13 5 16 10 3 6 -1 10 -9 10 -9 0
-16 -4 -16 -10z"/>
<path d="M2070 740 c0 -5 5 -10 10 -10 6 0 10 5 10 10 0 6 -4 10 -10 10 -5 0
-10 -4 -10 -10z"/>
<path d="M2120 740 c0 -5 7 -7 15 -4 8 4 15 8 15 10 0 2 -7 4 -15 4 -8 0 -15
-4 -15 -10z"/>
<path d="M2213 743 c9 -2 23 -2 30 0 6 3 -1 5 -18 5 -16 0 -22 -2 -12 -5z"/>
<path d="M2300 740 c36 -12 60 -12 60 0 0 6 -19 10 -42 9 -37 -1 -39 -2 -18
-9z"/>
<path d="M2740 740 c0 -5 7 -10 15 -10 8 0 15 5 15 10 0 6 -7 10 -15 10 -8 0
-15 -4 -15 -10z"/>
<path d="M2820 740 c0 -5 6 -10 13 -10 8 0 7 -4 -3 -10 -13 -8 -12 -10 3 -10
10 0 17 8 17 20 0 11 -7 20 -15 20 -8 0 -15 -4 -15 -10z"/>
<path d="M3181 746 c9 -8 99 -13 99 -5 0 5 -23 9 -52 9 -28 0 -49 -2 -47 -4z"/>
<path d="M2571 724 c0 -11 3 -14 6 -6 3 7 2 16 -1 19 -3 4 -6 -2 -5 -13z"/>
<path d="M2950 710 c0 -22 5 -30 18 -30 14 0 15 2 2 10 -9 6 -10 10 -3 10 6 0
11 9 10 20 -2 33 -27 23 -27 -10z"/>
<path d="M2998 733 c7 -3 16 -2 19 1 4 3 -2 6 -13 5 -11 0 -14 -3 -6 -6z"/>
<path d="M1700 721 c0 -4 23 -8 50 -10 28 -1 50 2 50 7 0 4 -22 9 -50 9 -27 1
-50 -2 -50 -6z"/>
<path d="M2510 720 l-35 -7 43 -2 c23 0 42 4 42 9 0 6 -3 9 -7 9 -5 -1 -24 -5
-43 -9z"/>
<path d="M1648 713 c7 -3 16 -2 19 1 4 3 -2 6 -13 5 -11 0 -14 -3 -6 -6z"/>
<path d="M2038 713 c7 -3 16 -2 19 1 4 3 -2 6 -13 5 -11 0 -14 -3 -6 -6z"/>
<path d="M2078 713 c6 -2 18 -2 25 0 6 3 1 5 -13 5 -14 0 -19 -2 -12 -5z"/>
<path d="M2128 713 c7 -3 16 -2 19 1 4 3 -2 6 -13 5 -11 0 -14 -3 -6 -6z"/>
<path d="M2213 713 c9 -2 23 -2 30 0 6 3 -1 5 -18 5 -16 0 -22 -2 -12 -5z"/>
<path d="M2288 713 c7 -3 16 -2 19 1 4 3 -2 6 -13 5 -11 0 -14 -3 -6 -6z"/>
<path d="M2408 713 c7 -3 16 -2 19 1 4 3 -2 6 -13 5 -11 0 -14 -3 -6 -6z"/>
<path d="M2448 713 c7 -3 16 -2 19 1 4 3 -2 6 -13 5 -11 0 -14 -3 -6 -6z"/>
<path d="M2663 713 c9 -2 25 -2 35 0 9 3 1 5 -18 5 -19 0 -27 -2 -17 -5z"/>
<path d="M2748 713 c7 -3 16 -2 19 1 4 3 -2 6 -13 5 -11 0 -14 -3 -6 -6z"/>
<path d="M2990 710 c0 -5 7 -10 15 -10 8 0 15 5 15 10 0 6 -7 10 -15 10 -8 0
-15 -4 -15 -10z"/>
<path d="M3126 712 c6 -4 14 -14 17 -22 4 -10 6 -8 6 8 1 15 -5 22 -16 22 -11
0 -14 -3 -7 -8z"/>
<path d="M3160 703 c0 -20 5 -22 60 -21 51 1 60 4 60 20 0 15 -8 18 -50 18
-33 0 -50 -4 -50 -12 0 -9 -4 -8 -10 2 -8 12 -10 11 -10 -7z"/>
<path d="M3292 700 c0 -14 2 -19 5 -12 2 6 2 18 0 25 -3 6 -5 1 -5 -13z"/>
<path d="M1398 693 c7 -3 16 -2 19 1 4 3 -2 6 -13 5 -11 0 -14 -3 -6 -6z"/>
<path d="M1450 690 c0 -7 19 -10 45 -9 25 2 45 6 45 11 0 4 -20 8 -45 8 -25 0
-45 -5 -45 -10z"/>
<path d="M1555 690 c-7 -12 19 -12 55 0 22 7 21 8 -12 9 -20 1 -40 -3 -43 -9z"/>
<path d="M1648 693 c7 -3 16 -2 19 1 4 3 -2 6 -13 5 -11 0 -14 -3 -6 -6z"/>
<path d="M1720 670 c0 -30 0 -30 -59 -30 -32 0 -72 -5 -90 -11 -23 -8 -43 -8
-74 0 -23 6 -58 12 -77 13 -19 2 -38 7 -41 11 -8 11 -59 -13 -59 -29 0 -15 31
-21 95 -19 58 3 81 -6 45 -16 -24 -7 -24 -7 -2 -8 39 -2 23 -18 -25 -26 -42
-7 -45 -9 -23 -16 23 -7 23 -7 -7 -8 -56 -2 -34 -31 23 -31 13 0 24 -4 24 -10
0 -5 7 -10 15 -10 8 0 15 -4 15 -8 0 -4 -17 -7 -37 -5 -33 3 -35 2 -15 -7 13
-5 21 -14 17 -19 -3 -5 4 -12 15 -16 11 -3 20 -11 20 -16 0 -6 7 -3 16 5 8 9
21 16 28 16 7 0 23 9 36 20 23 20 23 20 2 20 -33 0 -35 17 -3 22 37 5 75 -8
68 -25 -2 -6 1 -18 8 -24 10 -10 15 -8 21 5 4 9 7 20 6 24 -1 4 7 12 18 18 11
6 18 15 15 21 -4 5 0 12 8 15 16 6 19 34 3 34 -19 1 38 29 59 30 11 0 16 4 10
8 -6 4 -11 20 -12 36 0 16 -7 32 -15 37 -9 6 -7 9 9 9 12 0 25 5 28 10 4 6 -8
10 -29 10 -33 0 -36 -2 -36 -30z m36 -46 c-3 -9 -6 -18 -6 -20 0 -2 -9 -4 -20
-4 -11 0 -20 -4 -20 -9 0 -12 -137 -22 -163 -11 -15 6 4 9 66 9 48 1 87 5 87
10 0 5 10 11 23 13 12 2 21 9 20 16 -2 6 2 12 8 12 6 0 8 -7 5 -16z m-126
-105 c10 -6 1 -8 -28 -9 -24 0 -41 4 -38 9 4 5 0 12 -6 15 -7 3 3 3 22 0 19
-4 42 -10 50 -15z m-155 0 c11 -17 -1 -21 -15 -4 -8 9 -8 15 -2 15 6 0 14 -5
17 -11z m196 -12 c-10 -9 -11 -8 -5 6 3 10 9 15 12 12 3 -3 0 -11 -7 -18z
m-131 3 c-19 -13 -30 -13 -30 0 0 6 10 10 23 10 18 0 19 -2 7 -10z m-7 -67
c-7 -2 -19 -2 -25 0 -7 3 -2 5 12 5 14 0 19 -2 13 -5z"/>
<path d="M2070 690 c0 -5 9 -10 20 -10 11 0 20 5 20 10 0 6 -9 10 -20 10 -11
0 -20 -4 -20 -10z"/>
<path d="M2123 675 c0 -15 5 -25 13 -25 8 0 14 10 14 25 0 15 -6 25 -14 25 -8
0 -13 -10 -13 -25z"/>
<path d="M2162 675 c0 -16 2 -22 5 -12 2 9 2 23 0 30 -3 6 -5 -1 -5 -18z"/>
<path d="M2200 690 c0 -5 16 -10 35 -10 19 0 35 5 35 10 0 6 -16 10 -35 10
-19 0 -35 -4 -35 -10z"/>
<path d="M2280 675 c0 -14 5 -25 10 -25 6 0 10 11 10 25 0 14 -4 25 -10 25 -5
0 -10 -11 -10 -25z"/>
<path d="M2310 690 c0 -5 7 -10 15 -10 8 0 15 5 15 10 0 6 -7 10 -15 10 -8 0
-15 -4 -15 -10z"/>
<path d="M2390 690 c0 -5 9 -10 20 -10 11 0 20 5 20 10 0 6 -9 10 -20 10 -11
0 -20 -4 -20 -10z"/>
<path d="M2440 688 c0 -5 27 -8 60 -7 32 1 57 6 54 11 -7 11 -114 8 -114 -4z"/>
<path d="M2660 690 c-11 -7 -7 -10 18 -10 17 0 32 5 32 10 0 13 -30 13 -50 0z"/>
<path d="M2740 690 c0 -5 7 -10 15 -10 8 0 15 5 15 10 0 6 -7 10 -15 10 -8 0
-15 -4 -15 -10z"/>
<path d="M2800 690 c0 -5 11 -9 25 -8 14 1 25 6 25 10 0 4 -11 8 -25 8 -14 0
-25 -4 -25 -10z"/>
<path d="M1915 645 c-7 -43 -25 -63 -25 -27 -1 16 -1 16 -14 0 -7 -10 -16 -18
-19 -18 -4 0 -4 8 -1 18 5 16 5 16 -6 -1 -6 -9 -15 -15 -20 -12 -5 3 -11 1
-15 -4 -3 -6 46 -10 130 -10 75 -1 141 -3 146 -6 10 -7 12 -45 4 -67 -4 -10
-32 -12 -125 -9 -75 2 -120 -1 -120 -7 0 -9 37 -25 53 -23 4 1 15 -5 23 -14
14 -13 13 -15 -7 -15 -17 0 -19 -3 -10 -13 6 -8 8 -17 4 -20 -3 -4 1 -7 10 -7
8 0 18 -8 20 -17 4 -16 5 -15 6 1 1 20 1 20 16 0 13 -17 14 -17 15 -1 0 10 8
17 21 17 11 0 18 4 15 9 -4 5 6 14 21 19 l28 10 -29 1 c-24 1 -27 3 -16 16 7
8 16 12 21 10 12 -8 59 6 59 17 0 5 7 17 16 26 15 15 18 14 33 -4 16 -20 17
-20 35 -2 21 19 39 22 71 8 16 -7 14 -9 -15 -10 -34 -1 -34 -1 -12 -13 12 -7
19 -16 16 -20 -4 -4 0 -7 9 -7 8 0 18 -6 20 -12 4 -10 6 -10 6 0 1 6 6 12 12
12 6 0 17 7 25 15 17 17 60 11 81 -11 17 -17 16 -25 -1 -18 -13 5 -13 2 -3
-20 15 -32 27 -32 50 -1 15 22 16 25 2 25 -25 0 -17 17 12 25 21 5 24 8 12 15
-7 5 -23 7 -34 3 -17 -5 -17 -4 -4 9 32 32 56 31 80 -4 29 -41 49 -62 49 -51
0 4 11 13 25 20 20 9 25 8 25 -2 0 -7 6 -16 13 -18 9 -4 9 -6 0 -6 -10 -1 -10
-7 -1 -26 6 -14 15 -25 20 -25 5 0 7 -4 4 -8 -2 -4 -1 -14 5 -22 7 -12 9 -10
9 8 0 14 6 22 18 22 14 0 15 2 2 10 -8 5 -10 10 -5 10 6 0 3 5 -5 10 -12 8
-10 10 10 11 23 0 23 1 5 9 -17 7 -17 9 -2 9 9 1 17 7 18 14 0 6 5 2 11 -10 6
-13 15 -23 20 -23 4 0 8 -10 8 -22 0 -18 2 -20 9 -8 6 8 7 18 5 22 -3 4 7 9
23 9 19 1 22 3 9 6 -15 4 -16 7 -5 14 11 7 10 9 -6 10 -11 0 2 7 30 16 34 10
50 12 53 4 2 -6 10 -11 18 -11 8 0 14 -4 14 -10 0 -5 -7 -7 -15 -4 -20 8 -18
-6 4 -33 19 -23 38 -32 26 -14 -3 6 4 15 16 22 21 11 38 0 39 -24 0 -5 7 -1
16 8 9 9 14 18 11 22 -3 3 3 15 14 27 17 18 18 21 5 24 -24 5 -19 22 5 22 12
0 27 7 33 16 11 14 13 14 25 0 11 -13 11 -17 -3 -22 -15 -6 -14 -8 6 -18 13
-6 27 -21 33 -34 11 -24 25 -30 25 -9 0 14 35 47 49 47 5 0 15 -13 23 -29 l14
-29 13 29 c14 32 19 33 25 3 8 -35 25 -70 25 -51 1 9 6 17 13 17 6 0 8 3 5 6
-3 4 -2 15 4 25 7 14 6 19 -3 19 -8 0 -9 3 -3 8 16 11 18 52 3 52 -10 0 -10 2
1 9 9 6 12 21 8 52 -3 24 -7 49 -7 54 -1 6 -5 1 -10 -10 -7 -17 -9 -17 -9 -2
-1 9 -7 17 -15 17 -8 0 -17 -8 -19 -17 -4 -17 -5 -17 -6 0 0 9 -5 17 -10 17
-5 0 -12 -8 -14 -17 -4 -17 -5 -17 -6 0 -1 11 -9 17 -26 17 -17 0 -25 -6 -26
-17 0 -15 -2 -15 -9 2 l-9 20 -1 -20 -1 -20 -8 20 -8 20 -5 -20 c-5 -16 -6
-17 -7 -2 0 9 -8 17 -16 17 -18 0 -20 -16 -2 -23 6 -3 -37 -5 -98 -5 -60 1
-98 3 -82 5 41 7 32 23 -13 23 -38 0 -54 -13 -27 -23 6 -3 -14 -6 -45 -6 -45
-1 -58 2 -58 14 0 8 -7 15 -15 15 -18 0 -20 -16 -2 -23 6 -3 0 -6 -15 -6 -19
-1 -28 4 -28 14 0 10 -10 15 -31 15 -24 0 -30 -4 -25 -15 5 -13 -9 -15 -92
-13 -53 1 -80 3 -59 5 54 6 45 23 -12 23 -39 0 -51 -4 -54 -17 -4 -17 -5 -17
-6 0 -1 10 -9 17 -21 17 -25 0 -26 -17 -2 -23 13 -4 11 -5 -5 -6 -15 -1 -23 5
-24 17 0 14 -2 14 -9 -3 l-9 -20 -1 20 -1 20 -9 -20 c-7 -17 -9 -17 -9 -2 -1
21 -31 23 -31 2 0 -12 -18 -15 -100 -15 -82 0 -100 3 -100 15 0 8 -9 15 -20
15 -23 0 -26 -10 -8 -28 7 -7 8 -12 4 -12 -5 0 -3 -7 4 -15 8 -10 9 -15 2 -15
-6 0 -16 8 -22 18 -11 16 -11 16 -6 0 8 -26 -46 -24 -69 2 -10 11 -23 20 -28
20 -6 0 -2 -6 9 -14 10 -8 15 -18 11 -22 -11 -11 -53 38 -49 58 2 9 -1 19 -7
22 -5 4 -13 -13 -16 -39z m1135 -39 c0 -2 -9 -6 -20 -9 -11 -3 -20 -1 -20 4 0
5 9 9 20 9 11 0 20 -2 20 -4z m-560 -36 c0 -5 -10 -10 -22 -10 -19 0 -20 2 -8
10 19 13 30 13 30 0z m-95 -11 l20 0 -20 -9 c-12 -5 -14 -9 -6 -9 8 -1 12 -4
9 -7 -7 -6 -68 23 -68 32 0 4 10 4 23 0 12 -3 31 -6 42 -7z m445 -10 c0 -11
-27 -12 -34 0 -3 4 -3 11 0 14 8 8 34 -3 34 -14z m-685 1 c4 -6 -6 -10 -22
-10 -22 0 -25 2 -13 10 19 12 27 12 35 0z m88 3 c-7 -2 -21 -2 -30 0 -10 3 -4
5 12 5 17 0 24 -2 18 -5z m312 -3 c3 -6 -1 -7 -9 -4 -18 7 -21 14 -7 14 6 0
13 -4 16 -10z m-238 -6 c-3 -3 -12 -4 -19 -1 -8 3 -5 6 6 6 11 1 17 -2 13 -5z
m87 -34 c6 -6 -2 -6 -20 -1 -16 4 -38 5 -49 0 -31 -12 -39 -10 -26 5 12 14 79
12 95 -4z m772 11 c-3 -5 -14 -11 -25 -14 -14 -3 -18 -1 -14 9 3 8 14 14 25
14 10 0 17 -4 14 -9z m-626 -11 c0 -5 -7 -7 -15 -4 -8 4 -15 8 -15 10 0 2 7 4
15 4 8 0 15 -4 15 -10z m260 0 c0 -5 -4 -10 -10 -10 -5 0 -10 5 -10 10 0 6 5
10 10 10 6 0 10 -4 10 -10z m450 6 c0 -2 -9 -6 -20 -9 -11 -3 -18 -1 -14 4 5
9 34 13 34 5z m-316 -45 c4 -5 -3 -7 -14 -4 -23 6 -26 13 -6 13 8 0 17 -4 20
-9z"/>
<path d="M2998 683 c7 -3 16 -2 19 1 4 3 -2 6 -13 5 -11 0 -14 -3 -6 -6z"/>
<path d="M1485 660 c3 -5 13 -10 21 -10 8 0 14 5 14 10 0 6 -9 10 -21 10 -11
0 -17 -4 -14 -10z"/>
<path d="M1550 660 c0 -5 18 -10 40 -10 22 0 40 5 40 10 0 6 -18 10 -40 10
-22 0 -40 -4 -40 -10z"/>
<path d="M1640 660 c0 -5 7 -10 15 -10 8 0 15 5 15 10 0 6 -7 10 -15 10 -8 0
-15 -4 -15 -10z"/>
<path d="M2200 660 c0 -5 16 -10 35 -10 19 0 35 5 35 10 0 6 -16 10 -35 10
-19 0 -35 -4 -35 -10z"/>
<path d="M2800 660 c0 -5 7 -10 15 -10 8 0 15 5 15 10 0 6 -7 10 -15 10 -8 0
-15 -4 -15 -10z"/>
<path d="M2950 660 c0 -5 7 -10 15 -10 8 0 15 5 15 10 0 6 -7 10 -15 10 -8 0
-15 -4 -15 -10z"/>
<path d="M2990 660 c0 -5 7 -10 15 -10 8 0 15 5 15 10 0 6 -7 10 -15 10 -8 0
-15 -4 -15 -10z"/>
<path d="M3030 660 c0 -5 9 -10 20 -10 11 0 20 5 20 10 0 6 -9 10 -20 10 -11
0 -20 -4 -20 -10z"/>
<path d="M1523 633 c9 -2 23 -2 30 0 6 3 -1 5 -18 5 -16 0 -22 -2 -12 -5z"/>
<path d="M1821 554 c0 -11 3 -14 6 -6 3 7 2 16 -1 19 -3 4 -6 -2 -5 -13z"/>
<path d="M1896 561 c-4 -5 3 -7 14 -4 23 6 26 13 6 13 -8 0 -17 -4 -20 -9z"/>
<path d="M1910 540 c-23 -7 -23 -8 -3 -9 12 -1 25 4 28 9 3 6 5 10 3 9 -2 -1
-14 -5 -28 -9z"/>
<path d="M2008 543 c6 -2 18 -2 25 0 6 3 1 5 -13 5 -14 0 -19 -2 -12 -5z"/>
</g>
</svg>
